<svg width="48" height="48" viewBox="0 0 48 48" fill="none" xmlns="http://www.w3.org/2000/svg">
<mask id="path-1-outside-1_530_531" maskUnits="userSpaceOnUse" x="7.5" y="7.78711" width="33" height="33" fill="black">
<rect fill="white" x="7.5" y="7.78711" width="33" height="33"/>
<path fill-rule="evenodd" clip-rule="evenodd" d="M17.4272 18.5C17.6753 16.3801 18.3662 14.5089 19.3374 13.0924C20.5692 11.2957 22.2027 10.2871 23.9365 10.2871C25.674 10.2871 27.3406 11.2997 28.6039 13.0992C29.5984 14.5158 30.3118 16.3849 30.5689 18.5H17.4272ZM15.828 20C15.8268 20.0826 15.8262 20.1654 15.8262 20.2484C15.8262 20.6626 16.162 20.9984 16.5762 20.9984C16.9904 20.9984 17.3262 20.6626 17.3262 20.2484C17.3262 20.1653 17.3268 20.0825 17.3282 20H30.6717C30.6731 20.0825 30.6738 20.1653 30.6738 20.2484C30.6738 20.6626 31.0096 20.9984 31.4238 20.9984C31.838 20.9984 32.1738 20.6626 32.1738 20.2484C32.1738 20.1654 32.1732 20.0826 32.1719 20H37C37.5523 20 38 20.4477 38 21V37C38 37.5523 37.5523 38 37 38H11C10.4477 38 10 37.5523 10 37V21C10 20.4477 10.4477 20 11 20H15.828ZM15.918 18.5C16.1731 16.0945 16.9489 13.9234 18.1003 12.2442C19.5236 10.1681 21.5703 8.78711 23.9365 8.78711C26.2992 8.78711 28.3762 10.1642 29.8316 12.2373C31.0103 13.9164 31.8142 16.0896 32.0788 18.5H37C38.3807 18.5 39.5 19.6193 39.5 21V37C39.5 38.3807 38.3807 39.5 37 39.5H11C9.61929 39.5 8.5 38.3807 8.5 37V21C8.5 19.6193 9.61929 18.5 11 18.5H15.918Z"/>
</mask>
<path fill-rule="evenodd" clip-rule="evenodd" d="M17.4272 18.5C17.6753 16.3801 18.3662 14.5089 19.3374 13.0924C20.5692 11.2957 22.2027 10.2871 23.9365 10.2871C25.674 10.2871 27.3406 11.2997 28.6039 13.0992C29.5984 14.5158 30.3118 16.3849 30.5689 18.5H17.4272ZM15.828 20C15.8268 20.0826 15.8262 20.1654 15.8262 20.2484C15.8262 20.6626 16.162 20.9984 16.5762 20.9984C16.9904 20.9984 17.3262 20.6626 17.3262 20.2484C17.3262 20.1653 17.3268 20.0825 17.3282 20H30.6717C30.6731 20.0825 30.6738 20.1653 30.6738 20.2484C30.6738 20.6626 31.0096 20.9984 31.4238 20.9984C31.838 20.9984 32.1738 20.6626 32.1738 20.2484C32.1738 20.1654 32.1732 20.0826 32.1719 20H37C37.5523 20 38 20.4477 38 21V37C38 37.5523 37.5523 38 37 38H11C10.4477 38 10 37.5523 10 37V21C10 20.4477 10.4477 20 11 20H15.828ZM15.918 18.5C16.1731 16.0945 16.9489 13.9234 18.1003 12.2442C19.5236 10.1681 21.5703 8.78711 23.9365 8.78711C26.2992 8.78711 28.3762 10.1642 29.8316 12.2373C31.0103 13.9164 31.8142 16.0896 32.0788 18.5H37C38.3807 18.5 39.5 19.6193 39.5 21V37C39.5 38.3807 38.3807 39.5 37 39.5H11C9.61929 39.5 8.5 38.3807 8.5 37V21C8.5 19.6193 9.61929 18.5 11 18.5H15.918Z" fill="#221712"/>
<path d="M19.3374 13.0924L18.925 12.8096L19.3374 13.0924ZM17.4272 18.5L16.9306 18.4419L16.8652 19H17.4272V18.5ZM28.6039 13.0992L28.1946 13.3865L28.6039 13.0992ZM30.5689 18.5V19H31.1333L31.0652 18.4397L30.5689 18.5ZM15.828 20L16.3279 20.0074L16.3354 19.5H15.828V20ZM17.3282 20V19.5H16.8362L16.8282 19.9919L17.3282 20ZM30.6717 20L31.1717 19.9916L31.1634 19.5H30.6717V20ZM32.1719 20V19.5H31.6642L31.672 20.0076L32.1719 20ZM15.918 18.5V19H16.3677L16.4152 18.5527L15.918 18.5ZM18.1003 12.2442L18.5126 12.5269V12.5269L18.1003 12.2442ZM29.8316 12.2373L30.2408 11.9501V11.9501L29.8316 12.2373ZM32.0788 18.5L31.5818 18.5546L31.6307 19H32.0788V18.5ZM18.925 12.8096C17.9021 14.3016 17.1869 16.2523 16.9306 18.4419L17.9238 18.5581C18.1638 16.5079 18.8304 14.7161 19.7498 13.3751L18.925 12.8096ZM23.9365 9.78711C21.9924 9.78711 20.221 10.9194 18.925 12.8096L19.7498 13.3751C20.9174 11.6721 22.413 10.7871 23.9365 10.7871V9.78711ZM29.0131 12.8119C27.6855 10.9207 25.8819 9.78711 23.9365 9.78711V10.7871C25.4661 10.7871 26.9957 11.6786 28.1946 13.3865L29.0131 12.8119ZM31.0652 18.4397C30.7994 16.2524 30.0601 14.3033 29.0131 12.8119L28.1946 13.3865C29.1367 14.7284 29.8243 16.5175 30.0725 18.5603L31.0652 18.4397ZM17.4272 19H30.5689V18H17.4272V19ZM16.3262 20.2484C16.3262 20.1679 16.3268 20.0875 16.3279 20.0074L15.3281 19.9926C15.3268 20.0777 15.3262 20.163 15.3262 20.2484H16.3262ZM16.5762 20.4984C16.4381 20.4984 16.3262 20.3865 16.3262 20.2484H15.3262C15.3262 20.9388 15.8858 21.4984 16.5762 21.4984V20.4984ZM16.8262 20.2484C16.8262 20.3865 16.7142 20.4984 16.5762 20.4984V21.4984C17.2665 21.4984 17.8262 20.9388 17.8262 20.2484H16.8262ZM16.8282 19.9919C16.8269 20.0772 16.8262 20.1627 16.8262 20.2484H17.8262C17.8262 20.168 17.8268 20.0879 17.8281 20.0081L16.8282 19.9919ZM30.6717 19.5H17.3282V20.5H30.6717V19.5ZM31.1738 20.2484C31.1738 20.1625 31.1731 20.0769 31.1717 19.9916L30.1718 20.0084C30.1732 20.0881 30.1738 20.1681 30.1738 20.2484H31.1738ZM31.4238 20.4984C31.2858 20.4984 31.1738 20.3865 31.1738 20.2484H30.1738C30.1738 20.9388 30.7335 21.4984 31.4238 21.4984V20.4984ZM31.6738 20.2484C31.6738 20.3865 31.5619 20.4984 31.4238 20.4984V21.4984C32.1142 21.4984 32.6738 20.9388 32.6738 20.2484H31.6738ZM31.672 20.0076C31.6732 20.0877 31.6738 20.168 31.6738 20.2484H32.6738C32.6738 20.1629 32.6732 20.0775 32.6719 19.9924L31.672 20.0076ZM37 19.5H32.1719V20.5H37V19.5ZM38.5 21C38.5 20.1716 37.8284 19.5 37 19.5V20.5C37.2761 20.5 37.5 20.7239 37.5 21H38.5ZM38.5 37V21H37.5V37H38.5ZM37 38.5C37.8284 38.5 38.5 37.8284 38.5 37H37.5C37.5 37.2761 37.2761 37.5 37 37.5V38.5ZM11 38.5H37V37.5H11V38.5ZM9.5 37C9.5 37.8284 10.1716 38.5 11 38.5V37.5C10.7239 37.5 10.5 37.2761 10.5 37H9.5ZM9.5 21V37H10.5V21H9.5ZM11 19.5C10.1716 19.5 9.5 20.1716 9.5 21H10.5C10.5 20.7239 10.7239 20.5 11 20.5V19.5ZM15.828 19.5H11V20.5H15.828V19.5ZM16.4152 18.5527C16.6628 16.2186 17.4141 14.1291 18.5126 12.5269L17.6879 11.9614C16.4837 13.7178 15.6835 15.9703 15.4208 18.4473L16.4152 18.5527ZM18.5126 12.5269C19.8724 10.5436 21.7815 9.28711 23.9365 9.28711V8.28711C21.3592 8.28711 19.1748 9.79265 17.6879 11.9614L18.5126 12.5269ZM23.9365 9.28711C26.0904 9.28711 28.0307 10.5423 29.4223 12.5246L30.2408 11.9501C28.7217 9.7861 26.5079 8.28711 23.9365 8.28711V9.28711ZM29.4223 12.5246C30.5474 14.1272 31.3253 16.2183 31.5818 18.5546L32.5758 18.4454C32.3031 15.9609 31.4732 13.7055 30.2408 11.9501L29.4223 12.5246ZM32.0788 19H37V18H32.0788V19ZM37 19C38.1046 19 39 19.8954 39 21H40C40 19.3431 38.6569 18 37 18V19ZM39 21V37H40V21H39ZM39 37C39 38.1046 38.1046 39 37 39V40C38.6569 40 40 38.6569 40 37H39ZM37 39H11V40H37V39ZM11 39C9.89543 39 9 38.1046 9 37H8C8 38.6569 9.34314 40 11 40V39ZM9 37V21H8V37H9ZM9 21C9 19.8954 9.89543 19 11 19V18C9.34314 18 8 19.3431 8 21H9ZM11 19H15.918V18H11V19Z" fill="#221712" mask="url(#path-1-outside-1_530_531)"/>
</svg>
