<svg width="48" height="48" viewBox="0 0 48 48" fill="none" xmlns="http://www.w3.org/2000/svg">
<path d="M14.7492 16.9453C14.7492 20.1252 16.3539 22.9301 18.7967 24.5947C13.4213 26.3685 9.12431 30.7856 7.19429 36.4311C6.35466 38.8871 8.41775 41.1114 10.9274 41.1114H37.1906C39.7002 41.1114 41.7633 38.8871 40.9237 36.4311C38.984 30.7573 34.6535 26.3243 29.2403 24.5682C31.6614 22.9005 33.2492 20.1084 33.2492 16.9453C33.2492 11.8367 29.1078 7.69531 23.9992 7.69531C18.8906 7.69531 14.7492 11.8367 14.7492 16.9453ZM30.7492 16.9453C30.7492 20.6732 27.7271 23.6953 23.9992 23.6953C20.2713 23.6953 17.2492 20.6732 17.2492 16.9453C17.2492 13.2174 20.2713 10.1953 23.9992 10.1953C27.7271 10.1953 30.7492 13.2174 30.7492 16.9453ZM24.059 26.2499C30.6066 26.2499 36.332 30.7283 38.5581 37.2398C38.6681 37.5616 38.606 37.8362 38.3941 38.0899C38.1561 38.3749 37.726 38.6114 37.1906 38.6114H10.9274C10.3919 38.6114 9.96182 38.3749 9.72382 38.0899C9.51199 37.8362 9.44985 37.5616 9.55987 37.2398C11.7859 30.7283 17.5113 26.2499 24.059 26.2499Z" fill="#221712" stroke="#4E4E4E" stroke-width="0.5"/>
</svg>
