<svg width="48" height="48" viewBox="0 0 48 48" fill="none" xmlns="http://www.w3.org/2000/svg">
<path d="M21.9941 36.2637C25.2392 36.2637 28.2345 35.1919 30.6447 33.3833C30.6465 33.3851 30.6483 33.3869 30.6501 33.3887L37.3339 40.0572C38.0439 40.7657 39.1939 40.7644 39.9024 40.0543C40.6109 39.3442 40.6096 38.1942 39.8995 37.4858L33.2544 30.8559C35.235 28.386 36.4199 25.25 36.4199 21.8379C36.4199 13.8708 29.9613 7.41211 21.9941 7.41211C14.027 7.41211 7.56836 13.8708 7.56836 21.8379C7.56836 29.805 14.027 36.2637 21.9941 36.2637ZM33.9199 21.8379C33.9199 28.4243 28.5806 33.7637 21.9941 33.7637C15.4077 33.7637 10.0684 28.4243 10.0684 21.8379C10.0684 15.2515 15.4077 9.91211 21.9941 9.91211C28.5806 9.91211 33.9199 15.2515 33.9199 21.8379Z" fill="#221712" stroke="#221712" stroke-width="0.5"/>
</svg>
