<svg width="50" height="50" viewBox="0 0 50 50" fill="none" xmlns="http://www.w3.org/2000/svg">
<path d="M6.25 12.5H10.4167H43.75" stroke="#221712" stroke-width="4" stroke-linecap="round" stroke-linejoin="round"/>
<path d="M39.5827 12.4998V41.6665C39.5827 42.7716 39.1437 43.8314 38.3623 44.6128C37.5809 45.3942 36.5211 45.8332 35.416 45.8332H14.5827C13.4776 45.8332 12.4178 45.3942 11.6364 44.6128C10.855 43.8314 10.416 42.7716 10.416 41.6665V12.4998M16.666 12.4998V8.33317C16.666 7.2281 17.105 6.16829 17.8864 5.38689C18.6678 4.60549 19.7276 4.1665 20.8327 4.1665H29.166C30.2711 4.1665 31.3309 4.60549 32.1123 5.38689C32.8937 6.16829 33.3327 7.2281 33.3327 8.33317V12.4998" stroke="#221712" stroke-width="4" stroke-linecap="round" stroke-linejoin="round"/>
</svg>
